{"title":"M.S. Dhoni The Untold Story (2016) - 800 MB - DesiSCR-Rip - Hind","uid":15928235,"size":842456102,"categoryP":"video","categoryS":"movies","magnet":"?xt=urn:btih:1c72a1a702e08f8b7bae3e809c29a6f7bef0696a&amp;dn=M.S.+Dhoni+The+Untold+Story+%282016%29+-+800+MB+-+DesiSCR-Rip+-+Hind&amp;tr=udp%3A%2F%2Ftracker.leechers-paradise.org%3A6969&amp;tr=udp%3A%2F%2Fzer0day.ch%3A1337&amp;tr=udp%3A%2F%2Fopen.demonii.com%3A1337&amp;tr=udp%3A%2F%2Ftracker.coppersurfer.tk%3A6969&amp;tr=udp%3A%2F%2Fexodus.desync.com%3A6969","seeders":496,"leechers":232,"uploader":"SaM","files":3,"time":1475331011,"description":"M.S. Dhoni: The Untold Story (2016) - 800 MB - DesiSCR-Rip - Hindi - x264 - MP3 - Mafiaking - M2Tv\r\n\r\n\r\n-=Extreme Seeded=-\r\n\r\nRatings: 9.0/10\r\n\r\nGenere: Biography, Sport\r\n\r\nGeneral\r\nUnique ID : 244634245412094006220592712189109322449 (0xB80AD7848A9F9EC5826536194D97C2D1)\r\nComplete name : M.S. Dhoni The Untold Story (2016) - 800 MB - DesiSCR-Rip - Hindi - x264 - MP3 - Mafiaking - M2Tv.mkv\r\nFormat : Matroska\r\nFormat version : Version 4 / Version 2\r\nFile size : 801 MiB\r\nDuration : 3 h 4 min\r\nOverall bit rate : 607 kb/s\r\nMovie name : M.S. Dhoni The Untold Story (2016) - 800 MB - DesiSCR-Rip - Hindi - x264 - MP3 - Mafiaking - M2Tv\r\nEncoded date : UTC 2016-09-30 19:45:20\r\nWriting application : mkvmerge v7.0.0 ('Where We Going') 32bit built on Jun 9 2014 15:08:34\r\nWriting library : libebml v1.3.0 + libmatroska v1.4.1\r\n\r\nVideo\r\nID : 1\r\nFormat : AVC\r\nFormat/Info : Advanced Video Codec\r\nFormat profile :   \r\nFormat settings, CABAC : Yes\r\nFormat settings, ReFrames : 3 frames\r\nCodec ID : V_MPEG4/ISO/AVC\r\nDuration : 3 h 4 min\r\nBit rate : 550 kb/s\r\nWidth : 640 pixels\r\nHeight : 272 pixels\r\nDisplay aspect ratio : 2.35:1\r\nFrame rate mode : Constant\r\nFrame rate : 29.970 (30000/1001) FPS\r\nColor space : YUV\r\nChroma subsampling : 4:2:0\r\nBit depth : 8 bits\r\nScan type : Progressive\r\nBits/(Pixel*Frame) : 0.105\r\nStream size : 724 MiB (90%)\r\nTitle : Mafiaking\r\nLanguage : Hindi\r\nDefault : Yes\r\nForced : No\r\n\r\nAudio\r\nID : 2\r\nFormat : MPEG Audio\r\nFormat version : Version 2\r\nFormat profile : Layer 3\r\nMode : Joint stereo\r\nMode extension : MS Stereo\r\nCodec ID : A_MPEG/L3\r\nCodec ID/Hint : MP3\r\nDuration : 3 h 4 min\r\nBit rate mode : Constant\r\nBit rate : 56.0 kb/s\r\nChannel(s) : 2 channels\r\nSampling rate : 24.0 kHz\r\nFrame rate : 41.667 FPS (576 spf)\r\nCompression mode : Lossy\r\nStream size : 73.9 MiB (9%)\r\nTitle : Mafiaking\r\nWriting library : LAME3.99.5\r\nLanguage : Hindi\r\nDefault : Yes\r\nForced : No\r\n\r\n\r\n \nhttps://extraimago.com/image/wzG9 \nhttps://extraimago.com/image/wzG3 \nhttps://extraimago.com/image/wzGb \nhttps://extraimago.com/image/wzGh \nhttps://extraimago.com/image/wzGd \nhttps://extraimago.com/image/wzGI \nhttps://extraimago.com/image/wzGl \nhttps://extraimago.com/image/wzGi \nhttps://extraimago.com/image/wzGm \nhttps://extraimago.com/image/wzGR \nhttps://extraimago.com/image/wzGQ \nhttps://extraimago.com/image/wzGL \nhttps://extraimago.com/image/wzGy \nhttps://extraimago.com/image/wzGq \nhttps://extraimago.com/image/wzGS","torrent":{"xt":"urn:btih:1c72a1a702e08f8b7bae3e809c29a6f7bef0696a","amp;dn":"M.S.+Dhoni+The+Untold+Story+%282016%29+-+800+MB+-+DesiSCR-Rip+-+Hind","amp;tr":["udp%3A%2F%2Ftracker.leechers-paradise.org%3A6969","udp%3A%2F%2Fzer0day.ch%3A1337","udp%3A%2F%2Fopen.demonii.com%3A1337","udp%3A%2F%2Ftracker.coppersurfer.tk%3A6969","udp%3A%2F%2Fexodus.desync.com%3A6969"],"infoHash":"1c72a1a702e08f8b7bae3e809c29a6f7bef0696a","infoHashBuffer":{"type":"Buffer","data":[28,114,161,167,2,224,143,139,123,174,62,128,156,41,166,247,190,240,105,106]},"announce":[],"urlList":[]}}